<svg width="32" height="32" viewBox="0 0 32 32" fill="none" xmlns="http://www.w3.org/2000/svg">
<path d="M0.00566135 17.9081C0.0407223 17.2874 0.459076 16.7488 1.00103 16.4781C2.49083 15.7335 3.53344 14.0553 4.78464 12.9628C6.08427 11.8283 7.53514 10.8499 9.3173 10.8906C10.4699 10.9171 11.2284 12.2523 10.827 13.2789C10.2084 14.8614 9.07663 15.9403 7.76452 16.9689C7.56218 17.1276 7.36548 17.2919 7.16819 17.4559C8.82734 17.327 10.458 17.0812 12.1308 17.1404C13.9507 17.2046 25.2977 17.6518 27.0942 17.9174C27.325 17.9548 27.5562 17.9896 27.7874 18.0238C27.7921 17.9935 27.7969 17.9646 27.8022 17.929C27.8685 17.4898 27.8949 17.0447 27.9401 16.6032C28.3044 13.0493 28.7691 11.9848 28.994 8.41628C29.1173 7.94111 29.1749 5.98245 29.1943 4.02379C29.2106 2.35929 29.1821 2.29296 29.7945 0.716706C30.326 -0.651858 32.4071 0.121556 31.9293 1.51122C31.2804 3.39827 31.6473 4.05023 31.6833 6.00948C31.7228 8.16781 31.6806 8.84741 31.5971 11.0042C31.5178 13.0565 31.3651 12.6387 31.2204 14.687C31.1167 16.1543 31.2254 17.6868 30.9714 19.1389C30.2877 23.0473 15.4586 21.0984 12.911 20.8013C10.6276 20.535 8.19149 21.1709 5.8332 21.3049C6.50768 22.2352 7.10163 23.2217 7.73005 24.1846C8.33649 24.3493 8.84101 24.8175 8.95302 25.6456C8.93549 25.8786 9.00799 26.0836 9.17082 26.2601C10.2518 28.1557 7.26743 30.0425 5.97166 28.3102C4.59418 26.4684 3.58336 24.3894 2.18389 22.5647C1.16029 21.2294 -0.0947664 19.6853 0.00566135 17.9081Z" fill="#121325"/>
</svg>
