<svg width="32" height="32" viewBox="0 0 32 32" fill="none" xmlns="http://www.w3.org/2000/svg">
<path d="M31.9943 17.9081C31.9593 17.2874 31.5409 16.7488 30.999 16.4781C29.5092 15.7335 28.4666 14.0553 27.2154 12.9628C25.9157 11.8283 24.4649 10.8499 22.6827 10.8906C21.5301 10.9171 20.7716 12.2523 21.173 13.2789C21.7916 14.8614 22.9234 15.9403 24.2355 16.9689C24.4378 17.1276 24.6345 17.2919 24.8318 17.4559C23.1727 17.327 21.542 17.0812 19.8692 17.1404C18.0493 17.2046 6.70226 17.6518 4.90584 17.9174C4.67497 17.9548 4.4438 17.9896 4.21264 18.0238C4.20788 17.9935 4.20313 17.9646 4.19778 17.929C4.13152 17.4898 4.10508 17.0447 4.05992 16.6032C3.69564 13.0493 3.23093 11.9848 3.00601 8.41628C2.8827 7.94111 2.82506 5.98245 2.80574 4.02379C2.7894 2.35929 2.81793 2.29296 2.20555 0.716706C1.67399 -0.651858 -0.407085 0.121556 0.0706943 1.51122C0.719619 3.39827 0.352669 4.05023 0.316716 6.00948C0.277199 8.16781 0.31939 8.84741 0.402883 11.0042C0.482216 13.0565 0.634939 12.6387 0.77964 14.687C0.883337 16.1543 0.774589 17.6868 1.02863 19.1389C1.71232 23.0473 16.5414 21.0984 19.089 20.8013C21.3724 20.535 23.8085 21.1709 26.1668 21.3049C25.4923 22.2352 24.8984 23.2217 24.2699 24.1846C23.6635 24.3493 23.159 24.8175 23.047 25.6456C23.0645 25.8786 22.992 26.0836 22.8292 26.2601C21.7482 28.1557 24.7326 30.0425 26.0283 28.3102C27.4058 26.4684 28.4166 24.3894 29.8161 22.5647C30.8397 21.2294 32.0948 19.6853 31.9943 17.9081Z" fill="#121325"/>
</svg>
