<svg width="721" height="720" viewBox="0 0 721 720" fill="none" xmlns="http://www.w3.org/2000/svg">
<g clip-path="url(#clip0_17_550)">
<path d="M540.501 364.354C570.502 363.814 600.502 363.449 630.503 362.764L675.503 361.713C690.503 361.252 705.504 360.892 720.503 360.334V359.669C705.504 359.109 690.503 358.751 675.503 358.29L630.503 357.239C600.502 356.554 570.502 356.189 540.501 355.65C510.5 355.217 480.501 354.748 450.501 354.6C441.061 354.602 431.622 354.57 422.182 354.605C431.485 353 440.775 351.33 450.071 349.693C479.59 344.338 509.053 338.666 538.523 333.031C567.974 327.289 597.455 321.721 626.882 315.838L671.016 306.989C685.708 303.929 700.418 300.972 715.093 297.816L714.977 297.161C700.109 299.215 685.274 301.468 670.422 303.617L625.922 310.396C596.259 314.931 566.652 319.782 537.014 324.459C507.394 329.244 477.768 333.991 448.198 339.055C438.855 340.703 429.506 342.32 420.169 344.002C429.095 340.791 438.007 337.54 446.923 334.297C475.064 323.897 503.093 313.196 531.138 302.528C559.145 291.76 587.21 281.157 615.168 270.253L657.094 253.874C671.031 248.31 685.005 242.843 698.908 237.188L698.681 236.563C684.394 241.168 670.176 245.962 655.923 250.657L613.277 265.061C584.853 274.68 556.536 284.596 528.16 294.35C499.822 304.205 471.471 314.025 443.229 324.145C434.267 327.409 425.301 330.663 416.352 333.961C424.63 329.223 432.886 324.45 441.145 319.681C467.053 304.553 492.799 289.147 518.564 273.773C544.275 258.306 570.074 242.989 595.712 227.397L634.157 203.986C646.917 196.086 659.728 188.276 672.439 180.292L672.106 179.715C658.835 186.73 645.666 193.921 632.445 201.021L592.947 222.611C566.624 237.018 540.461 251.702 514.21 266.235C488.013 280.862 461.798 295.455 435.742 310.327C427.484 315.096 419.22 319.86 410.98 324.66C418.309 318.557 425.611 312.422 432.917 306.293C455.804 286.896 478.483 267.252 501.187 247.638C523.821 227.94 546.568 208.377 569.11 188.569L602.908 158.838C614.101 148.842 625.361 138.925 636.492 128.856L636.065 128.346C624.214 137.56 612.493 146.928 600.706 156.215L565.557 184.336C542.137 203.096 518.92 222.1 495.591 240.969C472.331 259.921 449.048 278.847 425.971 298.018C418.665 304.149 411.356 310.275 404.073 316.433C410.232 309.15 416.358 301.841 422.489 294.535C441.66 271.458 460.584 248.176 479.537 224.915C498.407 201.587 517.412 178.371 536.171 154.949L564.292 119.802C573.579 108.015 582.947 96.2928 592.161 84.4434L591.651 84.0158C581.58 95.1469 571.665 106.409 561.667 117.602L531.937 151.399C512.128 173.942 492.565 196.689 472.869 219.323C453.254 242.026 433.61 264.707 414.214 287.593C408.085 294.899 401.949 302.2 395.846 309.53C400.646 301.289 405.409 293.027 410.179 284.767C425.051 258.713 439.645 232.497 454.271 206.299C468.804 180.049 483.487 153.886 497.895 127.562L519.486 88.0646C526.585 74.8422 533.776 61.6727 540.792 48.4037L540.215 48.071C532.231 60.7818 524.421 73.5937 516.521 86.3527L493.111 124.799C477.519 150.439 462.202 176.236 446.733 201.947C431.359 227.713 415.952 253.459 400.823 279.366C396.055 287.625 391.281 295.881 386.544 304.159C389.84 295.21 393.096 286.246 396.358 277.284C406.48 249.042 416.3 220.691 426.155 192.352C435.908 163.977 445.827 135.661 455.443 107.236L469.846 64.5819C474.542 50.3286 479.335 36.1096 483.941 21.8237L483.316 21.5952C477.659 35.5001 472.194 49.4735 466.627 63.4095L450.249 105.337C439.345 133.295 428.742 161.361 417.973 189.367C407.307 217.41 396.605 245.441 386.205 273.582C382.961 282.497 379.71 291.408 376.5 300.335C378.182 290.998 379.799 281.648 381.447 272.305C386.511 242.735 391.258 213.11 396.042 183.49C400.721 153.851 405.57 124.244 410.106 94.5794L416.885 50.0799C419.034 35.228 421.287 20.3933 423.341 5.52435L422.685 5.40929C419.53 20.0839 416.572 34.7942 413.511 49.4859L404.662 93.6201C398.779 123.045 393.211 152.527 387.469 181.979C381.834 211.447 376.162 240.91 370.807 270.43C369.168 279.727 367.5 289.018 365.894 298.321C365.93 288.882 365.899 279.441 365.899 270.001C365.751 240 365.281 210 364.849 180.001C364.31 150 363.944 120.001 363.26 90.0004L362.209 45.0002C361.747 30.0006 361.388 14.9995 360.828 0H360.163C359.603 14.9995 359.245 30.0006 358.784 45.0002L357.733 90.0004C357.049 120.001 356.685 150 356.144 180.001C355.711 210.001 355.242 240.002 355.094 270.001C355.096 279.441 355.065 288.88 355.099 298.321C353.493 289.018 351.824 279.728 350.185 270.43C344.831 240.912 339.158 211.449 333.524 181.979C327.782 152.528 322.214 123.047 316.332 93.6201L307.482 49.4859C304.422 34.7942 301.465 20.0839 298.308 5.40929L297.652 5.52435C299.706 20.3933 301.957 35.228 304.108 50.0799L310.887 94.5794C315.422 124.243 320.273 153.851 324.95 183.49C329.735 213.11 334.482 242.735 339.546 272.305C341.194 281.648 342.811 290.996 344.493 300.335C341.282 291.408 338.031 282.496 334.788 273.582C324.388 245.441 313.687 217.41 303.019 189.367C292.251 161.361 281.648 133.295 270.744 105.337L254.365 63.4095C248.8 49.4719 243.334 35.4986 237.677 21.5952L237.052 21.8237C241.658 36.1112 246.451 50.3286 251.148 64.5819L265.551 107.228C275.169 135.654 285.086 163.969 294.839 192.345C304.694 220.683 314.514 249.034 324.636 277.276C327.898 286.238 331.154 295.202 334.45 304.152C329.714 295.874 324.939 287.617 320.171 279.358C305.042 253.451 289.637 227.705 274.263 201.94C258.795 176.229 243.478 150.429 227.886 124.791L204.475 86.345C196.575 73.5859 188.765 60.774 180.781 48.0632L180.204 48.396C187.219 61.6665 194.411 74.836 201.51 88.0568L223.101 127.554C237.509 153.878 252.192 180.041 266.725 206.292C281.351 232.489 295.943 258.705 310.817 284.76C315.586 293.019 320.35 301.281 325.149 309.522C319.047 302.193 312.911 294.891 306.782 287.585C287.385 264.698 267.742 242.019 248.127 219.315C228.429 196.681 208.866 173.934 189.059 151.392L159.327 117.594C149.331 106.401 139.414 95.1407 129.345 84.008L128.835 84.4356C138.049 96.2866 147.417 108.007 156.704 119.794L184.825 154.941C203.586 178.364 222.589 201.579 241.459 224.908C260.41 248.167 279.336 271.45 298.507 294.527C304.638 301.833 310.764 309.143 316.923 316.426C309.64 310.267 302.331 304.142 295.024 298.01C271.949 278.839 248.665 259.915 225.405 240.961C202.076 222.092 178.861 203.087 155.439 184.328L120.29 156.207C108.501 146.92 96.7806 137.552 84.9311 128.338L84.5036 128.848C95.6347 138.919 106.896 148.834 118.09 158.83L151.886 188.562C174.428 208.37 197.175 227.933 219.809 247.63C242.513 267.244 265.193 286.888 288.079 306.285C295.385 312.414 302.687 318.549 310.016 324.652C301.775 319.852 293.511 315.09 285.254 310.32C259.199 295.448 232.983 280.854 206.786 266.228C180.535 251.696 154.372 237.011 128.048 222.603L88.5508 201.013C75.3285 193.913 62.159 186.724 48.8899 179.707L48.5572 180.284C61.268 188.268 74.0799 196.078 86.8389 203.978L125.284 227.389C150.923 242.983 176.721 258.298 202.432 273.765C228.197 289.14 253.944 304.547 279.851 319.674C288.11 324.442 296.366 329.216 304.646 333.953C295.696 330.657 286.731 327.401 277.77 324.138C249.528 314.016 221.177 304.195 192.839 294.342C164.463 284.589 136.146 274.67 107.722 265.054L65.0758 250.65C50.8226 245.954 36.6036 241.16 22.3177 236.555L22.0907 237.18C35.9956 242.835 49.969 248.302 63.905 253.867L105.833 270.245C133.789 281.149 161.855 291.752 189.863 302.521C217.906 313.188 245.936 323.889 274.078 334.289C282.993 337.533 291.905 340.784 300.83 343.994C291.493 342.312 282.144 340.695 272.801 339.047C243.231 333.983 213.605 329.236 183.985 324.452C154.347 319.775 124.738 314.924 95.0765 310.388L50.5769 303.609C35.7251 301.46 20.8904 299.207 6.02142 297.153L5.90636 297.808C20.5825 300.963 35.2913 303.922 49.983 306.981L94.1172 315.83C123.543 321.714 153.024 327.281 182.476 333.023C211.945 338.658 241.409 344.33 270.927 349.685C280.224 351.324 289.514 352.992 298.817 354.597C289.377 354.563 279.938 354.592 270.498 354.592C240.498 354.74 210.497 355.21 180.498 355.642C150.497 356.183 120.497 356.547 90.4975 357.231L45.4973 358.282C30.4977 358.745 15.4966 359.103 0.49707 359.661V360.326C15.4966 360.886 30.4977 361.244 45.4973 361.706L90.4975 362.757C120.498 363.441 150.497 363.806 180.498 364.346C210.499 364.778 240.498 365.248 270.498 365.395C279.938 365.394 289.377 365.425 298.817 365.391C289.516 366.995 280.224 368.665 270.927 370.302C241.409 375.657 211.946 381.329 182.476 386.964C153.025 392.706 123.544 398.274 94.1172 404.157L49.983 413.006C35.2913 416.066 20.5809 419.023 5.90636 422.178L6.02142 422.834C20.8904 420.78 35.7251 418.527 50.5769 416.379L95.0765 409.599C124.74 405.064 154.347 400.214 183.985 395.536C213.605 390.752 243.231 386.005 272.801 380.941C282.144 379.292 291.493 377.675 300.83 375.993C291.904 379.204 282.991 382.455 274.076 385.698C245.935 396.097 217.906 406.799 189.861 417.467C161.855 428.236 133.789 438.838 105.831 449.742L63.9035 466.121C49.9659 471.686 35.9925 477.153 22.0891 482.808L22.3161 483.434C36.6036 478.829 50.821 474.035 65.0743 469.34L107.72 454.935C136.145 445.317 164.461 435.4 192.837 425.647C221.176 415.792 249.528 405.972 277.769 395.85C286.731 392.588 295.694 389.332 304.644 386.036C296.366 390.773 288.11 395.547 279.849 400.315C253.942 415.443 228.196 430.849 202.43 446.224C176.72 461.691 150.92 477.008 125.282 492.6L86.8374 516.01C74.0768 523.91 61.2665 531.721 48.5556 539.705L48.8884 540.282C62.1589 533.267 75.3285 526.076 88.5493 518.976L128.047 497.386C154.369 482.979 180.532 468.295 206.784 453.762C232.982 439.135 259.198 424.541 285.252 409.669C293.511 404.899 301.774 400.137 310.015 395.337C302.685 401.44 295.384 407.575 288.077 413.704C265.19 433.101 242.511 452.745 219.807 472.359C197.174 492.057 174.426 511.62 151.884 531.429L118.088 561.159C106.895 571.155 95.6331 581.072 84.502 591.143L84.9296 591.653C96.7806 582.439 108.501 573.071 120.288 563.784L155.437 535.663C178.859 516.904 202.074 497.899 225.403 479.029C248.664 460.077 271.946 441.152 295.023 421.982C302.329 415.851 309.638 409.725 316.921 403.567C310.762 410.85 304.636 418.159 298.506 425.465C279.334 448.54 260.41 471.824 241.457 495.083C222.587 518.412 203.583 541.627 184.823 565.049L156.703 600.198C147.416 611.985 138.048 623.707 128.834 635.557L129.344 635.984C139.414 624.853 149.331 613.591 159.326 602.398L189.057 568.601C208.866 546.058 228.429 523.311 248.126 500.677C267.74 477.974 287.384 455.293 306.78 432.407C312.91 425.101 319.045 417.8 325.148 410.47C320.348 418.711 315.584 426.975 310.815 435.234C295.942 461.289 281.35 487.505 266.723 513.702C252.192 539.953 237.508 566.116 223.099 592.439L201.508 631.937C194.409 645.159 187.218 658.329 180.202 671.598L180.779 671.931C188.763 659.22 196.573 646.408 204.474 633.649L227.885 595.202C243.477 569.563 258.793 543.765 274.261 518.054C289.635 492.289 305.042 466.542 320.169 440.636C324.938 432.376 329.711 424.12 334.449 415.842C331.153 424.792 327.897 433.755 324.635 442.718C314.513 470.96 304.692 499.311 294.838 527.649C285.084 556.025 275.167 584.34 265.549 612.766L251.155 655.421C246.459 669.674 241.664 683.893 237.058 698.179L237.683 698.406C243.338 684.503 248.807 670.528 254.371 656.592L270.75 614.664C281.654 586.707 292.257 558.642 303.026 530.634C313.692 502.591 324.394 474.561 334.794 446.42C338.037 437.506 341.289 428.593 344.499 419.665C342.817 429.002 341.2 438.352 339.552 447.695C334.488 477.265 329.741 506.89 324.957 536.51C320.278 566.149 315.429 595.756 310.893 625.419L304.114 669.919C301.965 684.77 299.712 699.605 297.658 714.474L298.314 714.589C301.469 699.915 304.426 685.204 307.488 670.511L316.338 626.377C322.22 596.951 327.79 567.47 333.53 538.02C339.166 508.551 344.837 479.087 350.192 449.568C351.83 440.272 353.499 430.982 355.105 421.679C355.071 431.118 355.1 440.558 355.1 449.999C355.248 479.999 355.718 509.999 356.15 539.999C356.689 570 357.055 599.999 357.739 630L358.79 675C359.252 689.999 359.611 705 360.169 720H360.835C361.394 705 361.752 689.999 362.215 675L363.266 630C363.95 599.999 364.316 569.998 364.855 539.999C365.288 509.999 365.757 479.998 365.905 449.999C365.903 440.559 365.934 431.12 365.9 421.679C367.505 430.982 369.175 440.272 370.814 449.568C376.168 479.087 381.84 508.549 387.475 538.02C393.217 567.47 398.785 596.951 404.669 626.377L413.517 670.511C416.579 685.203 419.534 699.913 422.691 714.589L423.347 714.474C421.293 699.605 419.042 684.77 416.891 669.919L410.112 625.419C405.577 595.756 400.726 566.149 396.049 536.51C391.264 506.89 386.517 477.265 381.453 447.695C379.805 438.352 378.188 429.002 376.506 419.665C379.717 428.592 382.968 437.504 386.211 446.42C396.611 474.561 407.312 502.591 417.98 530.634C428.748 558.64 439.352 586.707 450.255 614.664L466.634 656.592C472.198 670.53 477.665 684.503 483.322 698.406L483.947 698.179C479.341 683.892 474.548 669.674 469.852 655.421L455.45 612.775C445.831 584.349 435.913 556.034 426.161 527.658C416.307 499.32 406.486 470.967 396.364 442.727C393.101 433.765 389.846 424.801 386.55 415.851C391.288 424.129 396.061 432.386 400.83 440.645C415.958 466.552 431.364 492.298 446.739 518.064C462.207 543.774 477.524 569.574 493.117 595.212L516.527 633.658C524.427 646.417 532.237 659.229 540.221 671.94L540.798 671.607C533.783 658.337 526.591 645.167 519.492 631.946L497.901 592.449C483.493 566.125 468.81 539.962 454.277 513.712C439.651 487.514 425.059 461.298 410.185 435.243C405.416 426.984 400.654 418.722 395.853 410.481C401.954 417.811 408.091 425.112 414.22 432.418C433.617 455.306 453.26 477.986 472.875 500.688C492.573 523.322 512.136 546.069 531.943 568.611L561.673 602.409C571.669 613.602 581.586 624.862 591.657 635.995L592.167 635.567C582.953 623.718 573.585 611.996 564.298 600.209L536.177 565.06C517.418 541.638 498.413 518.423 479.543 495.094C460.592 471.835 441.666 448.551 422.495 425.476C416.364 418.17 410.24 410.86 404.081 403.578C411.364 409.736 418.673 415.861 425.979 421.993C449.056 441.164 472.338 460.088 495.599 479.04C518.928 497.91 542.762 516.915 566.182 535.674L600.712 563.795C612.5 573.082 624.221 582.449 636.071 591.663L636.498 591.153C625.367 581.083 614.106 571.168 602.914 561.17L569.116 531.44C546.574 511.631 523.827 492.068 501.193 472.37C478.489 452.756 455.809 433.112 432.923 413.715C425.617 407.586 418.315 401.45 410.986 395.348C419.227 400.148 427.491 404.91 435.748 409.68C461.804 424.552 488.019 439.146 514.216 453.772C540.468 468.306 566.632 482.989 592.954 497.397L632.451 518.987C645.674 526.087 658.843 533.278 672.112 540.293L672.445 539.716C659.734 531.732 646.922 523.922 634.163 516.02L595.718 492.611C570.079 477.019 544.281 461.702 518.57 446.235C492.805 430.86 467.058 415.453 441.151 400.326C432.892 395.558 424.636 390.784 416.358 386.047C425.308 389.343 434.273 392.599 443.235 395.861C471.477 405.983 499.828 415.803 528.166 425.658C556.542 435.411 584.859 445.328 613.283 454.946L655.92 469.349C670.173 474.044 684.392 478.838 698.678 483.443L698.905 482.817C685.002 477.162 671.027 471.695 657.091 466.13L615.164 449.752C587.207 438.848 559.14 428.245 531.135 417.476C503.092 406.81 475.061 396.108 446.92 385.708C438.004 382.464 429.092 379.213 420.166 376.002C429.502 377.685 438.852 379.302 448.195 380.95C477.765 386.014 507.391 390.761 537.01 395.545C566.649 400.222 596.256 405.073 625.919 409.609L670.419 416.388C685.271 418.537 700.105 420.79 714.974 422.844L715.089 422.187C700.415 419.033 685.705 416.075 671.013 413.015L626.879 404.167C597.453 398.283 567.972 392.715 538.52 386.973C509.051 381.339 479.589 375.667 450.068 370.312C440.772 368.673 431.482 367.005 422.179 365.4C431.619 365.434 441.058 365.405 450.498 365.405C480.501 365.255 510.502 364.786 540.501 364.354Z" fill="#F0F0F0"/>
</g>
<defs>
<clipPath id="clip0_17_550">
<rect width="720" height="720" fill="white" transform="translate(0.5)"/>
</clipPath>
</defs>
</svg>
