<?xml version="1.0" standalone="no"?>
<!DOCTYPE svg PUBLIC "-//W3C//DTD SVG 20010904//EN"
 "http://www.w3.org/TR/2001/REC-SVG-20010904/DTD/svg10.dtd">
<svg version="1.0" xmlns="http://www.w3.org/2000/svg"
 width="1080.000000pt" height="1080.000000pt" viewBox="0 0 1080.000000 1080.000000"
 preserveAspectRatio="xMidYMid meet">

<g transform="translate(0.000000,1080.000000) scale(0.100000,-0.100000)"
fill="#FFCC00" stroke="none">
<path d="M5920 9309 c-332 -29 -643 -191 -943 -491 l-128 -128 -90 95 c-207
216 -379 298 -624 298 -140 0 -225 -17 -330 -68 -169 -82 -270 -228 -315 -456
l-11 -56 -107 -22 c-241 -50 -520 -168 -727 -306 -529 -354 -864 -905 -935
-1535 -8 -65 -10 -542 -7 -1490 3 -1362 4 -1397 24 -1495 91 -441 269 -790
560 -1096 277 -290 674 -515 1061 -599 233 -51 199 -50 2050 -50 1091 0 1760
4 1817 10 972 109 1744 866 1870 1833 23 177 23 2758 0 2934 -80 608 -422
1153 -940 1496 -125 83 -344 188 -492 236 -242 80 -463 111 -779 111 l-181 0
-6 118 c-10 210 -68 353 -197 483 -143 143 -323 200 -570 178z m151 -365 c166
-38 249 -165 249 -382 0 -272 -162 -489 -538 -720 -101 -62 -118 -83 -84 -100
63 -33 223 -19 374 32 170 58 309 153 429 294 l54 63 320 -4 c352 -4 432 -14
635 -79 103 -33 294 -119 375 -170 184 -116 383 -303 507 -478 128 -180 232
-422 279 -648 37 -182 40 -330 37 -1632 l-4 -1255 -23 -125 c-46 -250 -133
-467 -271 -675 -101 -151 -312 -362 -464 -464 -187 -124 -390 -210 -621 -263
l-100 -22 -1760 -4 c-1257 -2 -1787 0 -1855 8 -270 32 -517 123 -750 277 -161
107 -366 312 -473 473 -166 252 -259 521 -287 830 -14 157 -13 2465 0 2636 25
310 120 583 292 841 97 146 302 351 448 450 189 127 380 211 589 259 58 13
106 22 107 21 0 -1 18 -34 38 -73 96 -185 309 -374 481 -426 175 -54 375 -8
375 85 0 34 -89 109 -200 167 -174 92 -235 144 -324 280 -90 135 -112 327 -51
438 35 64 71 96 144 130 140 64 338 24 455 -93 111 -111 180 -288 220 -563 26
-173 52 -262 79 -262 17 0 50 35 70 75 8 17 34 84 57 150 90 257 187 422 335
570 91 92 253 216 356 274 157 88 346 120 500 85z"/>
<path d="M3697 6534 c-146 -35 -308 -155 -385 -285 -147 -249 -108 -557 97
-759 128 -127 263 -182 441 -182 276 2 498 163 592 432 29 81 35 228 14 323
-51 227 -233 414 -461 472 -73 19 -220 18 -298 -1z m60 -175 c34 -13 80 -55
99 -91 22 -42 18 -124 -8 -170 -82 -145 -317 -99 -335 66 -16 137 117 243 244
195z"/>
<path d="M6800 6535 c-112 -31 -200 -83 -285 -169 -127 -127 -185 -266 -185
-440 0 -369 331 -662 696 -616 146 19 257 73 364 180 129 128 184 263 183 445
-2 265 -165 494 -416 583 -91 32 -270 41 -357 17z m77 -184 c119 -54 135 -225
28 -307 -74 -56 -201 -40 -253 33 -27 37 -44 106 -36 140 29 124 148 185 261
134z"/>
<path d="M5298 6187 c-92 -39 -211 -132 -369 -287 -170 -167 -193 -203 -194
-300 0 -87 30 -137 136 -228 365 -312 704 -305 1082 22 83 72 111 123 111 205
0 96 -23 133 -183 291 -288 285 -434 359 -583 297z m160 -212 c103 -59 421
-359 391 -369 -8 -3 -59 -15 -114 -26 -146 -30 -315 -41 -448 -31 -115 10
-347 50 -347 61 0 3 58 64 128 135 153 154 284 255 332 255 8 0 34 -11 58 -25z"/>
</g>
</svg>
