<svg width="213" height="48" viewBox="0 0 213 48" fill="none" xmlns="http://www.w3.org/2000/svg">
<path d="M204.872 41.8721C204.099 41.8721 203.416 41.7031 202.82 41.3652C202.241 41.0434 201.734 40.5285 201.3 39.8205C201.139 39.4344 200.978 38.9919 200.817 38.4931C200.656 37.9943 200.495 37.4874 200.334 36.9725C200.173 36.4415 200.004 35.9347 199.827 35.452C199.65 34.9532 199.465 34.5187 199.272 34.1487C199.015 33.6498 198.717 33.2798 198.379 33.0384C198.041 32.781 197.575 32.604 196.979 32.5074C196.69 32.4592 196.263 32.4109 195.7 32.3626C195.153 32.3143 194.542 32.2741 193.866 32.2419C193.206 32.2098 192.579 32.1937 191.983 32.1937C191.082 32.1937 190.165 32.2178 189.232 32.2661C188.315 32.3143 187.518 32.3707 186.842 32.435C186.247 32.5155 185.788 32.6603 185.467 32.8695C185.145 33.0625 184.879 33.3763 184.67 33.8108C184.461 34.2291 184.244 34.736 184.018 35.3313C183.809 35.9106 183.592 36.522 183.367 37.1656C183.142 37.8092 182.908 38.4287 182.667 39.0241C182.297 39.7803 181.83 40.3676 181.267 40.786C180.704 41.2043 179.915 41.4135 178.902 41.4135C178.081 41.4135 177.397 41.2848 176.85 41.0273C176.303 40.7699 175.893 40.3515 175.619 39.7723C175.346 39.193 175.209 38.4126 175.209 37.4311C175.209 36.6427 175.314 35.7336 175.523 34.7038C175.748 33.6579 176.038 32.5557 176.392 31.3972C176.762 30.2226 177.164 29.048 177.598 27.8734C178.049 26.6827 178.508 25.5483 178.974 24.4703C179.441 23.3761 179.883 22.3946 180.302 21.5257C180.72 20.6407 181.082 19.9408 181.388 19.4259C181.935 18.4766 182.562 17.5514 183.27 16.6503C183.994 15.7331 184.799 14.9125 185.684 14.1885C186.585 13.4483 187.574 12.861 188.653 12.4266C189.747 11.9921 190.945 11.7749 192.249 11.7749C194.292 11.7749 196.159 12.3542 197.848 13.5127C199.538 14.6551 201.058 16.1917 202.41 18.1226C202.925 18.8145 203.432 19.6834 203.93 20.7292C204.445 21.759 204.944 22.9014 205.427 24.1565C205.91 25.4115 206.352 26.7068 206.754 28.0423C207.157 29.3778 207.511 30.6973 207.816 32.0006C208.138 33.2878 208.379 34.4946 208.54 35.6209C208.717 36.7312 208.806 37.6966 208.806 38.5172C208.806 39.7401 208.452 40.6009 207.744 41.0997C207.036 41.6146 206.078 41.8721 204.872 41.8721ZM197.366 27.5113C197.703 27.4309 197.929 27.278 198.041 27.0528C198.154 26.8275 198.21 26.4816 198.21 26.0149C198.21 25.5644 198.13 25.0173 197.969 24.3737C197.824 23.714 197.623 23.0302 197.366 22.3222C197.108 21.5981 196.81 20.9304 196.472 20.3189C195.99 19.4179 195.427 18.6697 194.783 18.0743C194.139 17.4629 193.439 17.1572 192.683 17.1572C191.83 17.1572 191.026 17.4951 190.27 18.1708C189.513 18.8466 188.846 19.6834 188.266 20.681C188.041 21.0671 187.808 21.5177 187.566 22.0326C187.325 22.5314 187.1 23.0463 186.891 23.5772C186.681 24.1082 186.513 24.6151 186.384 25.0978C186.255 25.5644 186.191 25.9667 186.191 26.3046C186.191 26.8034 186.392 27.1574 186.794 27.3665C187.212 27.5596 187.824 27.6562 188.628 27.6562C190.141 27.6562 191.452 27.6562 192.563 27.6562C193.673 27.6562 194.622 27.6481 195.411 27.632C196.199 27.5998 196.851 27.5596 197.366 27.5113Z" fill="#121325"/>
<path d="M139.453 42.0653C138.391 42.0653 137.619 41.7757 137.136 41.1965C136.653 40.6333 136.235 39.7966 135.881 38.6864C135.72 38.0266 135.575 37.3106 135.446 36.5383C135.334 35.7498 135.237 34.9292 135.157 34.0764C135.092 33.2076 135.036 32.3226 134.988 31.4215C134.956 30.5044 134.948 29.5872 134.964 28.6701C134.98 27.592 135.02 26.4978 135.084 25.3876C135.165 24.2613 135.269 23.1752 135.398 22.1293C135.527 21.0834 135.68 20.1421 135.857 19.3054C136.034 18.4526 136.235 17.7607 136.46 17.2298C136.943 15.9908 137.578 15.0173 138.367 14.3093C139.155 13.5853 140.04 13.0704 141.022 12.7647C142.003 12.4589 143.017 12.3061 144.063 12.3061C145.205 12.3061 146.203 12.5233 147.056 12.9577C147.924 13.3922 148.616 14.0358 149.131 14.8886C149.405 15.3552 149.678 15.9345 149.952 16.6264C150.225 17.3022 150.483 18.0343 150.724 18.8227C150.982 19.6111 151.215 20.4076 151.424 21.2121C151.633 22.0006 151.818 22.7488 151.979 23.4568C152.156 24.3095 152.357 25.0578 152.583 25.7014C152.824 26.3289 153.17 26.6427 153.62 26.6427C154.087 26.6427 154.441 26.3611 154.682 25.7979C154.924 25.2347 155.117 24.6072 155.262 23.9153C155.407 23.1591 155.567 22.3707 155.744 21.55C155.921 20.7294 156.114 19.9169 156.324 19.1123C156.533 18.2917 156.75 17.5274 156.975 16.8195C157.217 16.0954 157.466 15.4518 157.724 14.8886C158.222 14.0358 158.874 13.3841 159.679 12.9336C160.499 12.4831 161.577 12.2578 162.913 12.2578C163.942 12.2578 164.884 12.4348 165.737 12.7888C166.589 13.1267 167.346 13.6175 168.005 14.2611C168.665 14.9047 169.228 15.6851 169.695 16.6022C170.129 17.4068 170.499 18.4204 170.805 19.6433C171.111 20.8662 171.344 22.2258 171.505 23.7222C171.666 25.2026 171.754 26.7472 171.77 28.3563C171.787 29.2091 171.787 30.0619 171.77 30.9147C171.77 31.7675 171.746 32.6122 171.698 33.4489C171.666 34.2856 171.602 35.1062 171.505 35.9108C171.425 36.7153 171.32 37.4957 171.191 38.2519C170.886 39.3139 170.419 40.0862 169.791 40.5689C169.18 41.0356 168.327 41.2689 167.233 41.2689C166.541 41.2689 166.002 41.116 165.616 40.8103C165.23 40.4885 164.972 40.054 164.844 39.507C164.795 39.0564 164.747 38.5657 164.699 38.0347C164.667 37.4876 164.626 36.9325 164.578 36.3693C164.53 35.7901 164.482 35.2108 164.433 34.6316C164.385 34.0523 164.345 33.4811 164.313 32.9179C164.264 31.8399 164.2 30.7859 164.119 29.7562C164.039 28.7264 163.942 27.8012 163.83 26.9806C163.733 26.1599 163.613 25.5324 163.468 25.098C163.226 24.2613 162.937 23.6257 162.599 23.1913C162.277 22.7568 161.811 22.5396 161.199 22.5396C160.636 22.5396 160.153 22.7729 159.751 23.2395C159.365 23.6901 159.067 24.3498 158.858 25.2187C158.777 25.5405 158.681 25.9588 158.568 26.4737C158.472 26.9725 158.367 27.5276 158.255 28.1391C158.158 28.7505 158.045 29.378 157.917 30.0217C157.804 30.6653 157.691 31.3008 157.579 31.9284C157.466 32.5559 157.361 33.1352 157.265 33.6661C156.991 34.8246 156.565 35.7096 155.986 36.3211C155.407 36.9164 154.578 37.2141 153.5 37.2141C152.277 37.2141 151.392 36.836 150.845 36.0797C150.298 35.3235 149.799 34.2856 149.348 32.9662C149.236 32.5639 149.107 32.0732 148.962 31.4939C148.834 30.8986 148.689 30.263 148.528 29.5872C148.383 28.8953 148.23 28.2115 148.069 27.5357C147.924 26.8438 147.78 26.2082 147.635 25.629C147.506 25.0497 147.385 24.567 147.273 24.1808C147.064 23.4085 146.798 22.8373 146.476 22.4672C146.155 22.0971 145.76 21.9121 145.294 21.9121C144.65 21.9121 144.183 22.1695 143.894 22.6844C143.604 23.1993 143.371 24.0038 143.194 25.098C143.146 25.452 143.097 25.9025 143.049 26.4496C143.001 26.9806 142.961 27.5759 142.928 28.2356C142.896 28.8953 142.872 29.6033 142.856 30.3596C142.84 31.1158 142.832 31.9042 142.832 32.7248C142.832 33.5455 142.824 34.3258 142.808 35.066C142.792 35.8062 142.767 36.4981 142.735 37.1417C142.703 37.7692 142.655 38.3324 142.59 38.8312C142.542 39.3139 142.47 39.7242 142.373 40.0621C142.132 40.6735 141.77 41.1562 141.287 41.5102C140.821 41.8803 140.209 42.0653 139.453 42.0653Z" fill="#121325"/>
<path d="M125.732 41.2688C124.396 41.2688 123.399 40.8183 122.739 39.9172C122.095 39.0161 121.773 37.8335 121.773 36.3693C121.773 35.7739 121.773 35.0177 121.773 34.1005C121.79 33.1834 121.806 32.1536 121.822 31.0111C121.838 29.8687 121.862 28.67 121.894 27.4149C121.926 26.1599 121.967 24.9048 122.015 23.6498C122.063 22.3786 122.119 21.1638 122.184 20.0053C122.264 18.8468 122.353 17.8009 122.449 16.8677C122.674 15.2103 123.069 14.0196 123.632 13.2956C124.195 12.5715 125.112 12.2095 126.383 12.2095C127.413 12.2095 128.177 12.5715 128.676 13.2956C129.175 14.0036 129.489 14.9529 129.618 16.1436C129.666 16.7872 129.706 17.5917 129.738 18.5571C129.786 19.5065 129.819 20.5524 129.835 21.6948C129.867 22.8211 129.891 23.9796 129.907 25.1703C129.939 26.3449 129.955 27.4873 129.955 28.5976C129.955 29.7078 129.955 30.7296 129.955 31.6628C129.955 32.58 129.955 33.3362 129.955 33.9316C129.939 35.7337 129.811 37.1738 129.569 38.2518C129.328 39.3138 128.901 40.0862 128.29 40.5689C127.695 41.0355 126.842 41.2688 125.732 41.2688Z" fill="#121325"/>
<path d="M111.879 41.5347C111.01 41.5347 110.374 41.3818 109.972 41.0761C109.57 40.7704 109.304 40.2635 109.176 39.5556C109.143 39.0729 109.119 38.558 109.103 38.0109C109.087 37.4477 109.071 36.8846 109.055 36.3214C109.055 35.7421 109.055 35.187 109.055 34.656C109.055 34.109 109.055 33.6021 109.055 33.1355C109.055 32.6689 109.047 32.2666 109.031 31.9287C109.015 31.1081 108.934 30.5047 108.789 30.1185C108.661 29.7324 108.435 29.4508 108.114 29.2738C107.744 29.0807 107.132 28.9278 106.279 28.8152C105.427 28.7026 104.075 28.6462 102.225 28.6462C101.195 28.6462 100.35 28.6623 99.6903 28.6945C99.0467 28.7106 98.5238 28.7428 98.1215 28.7911C97.7353 28.8232 97.4216 28.8715 97.1802 28.9359C96.955 29.0002 96.7377 29.0807 96.5286 29.1772C96.3194 29.2738 96.1102 29.4347 95.901 29.6599C95.6919 29.8691 95.5551 30.1909 95.4907 30.6254C95.4264 30.8667 95.3701 31.1403 95.3218 31.446C95.2896 31.7517 95.2574 32.0976 95.2252 32.4838C95.1931 32.87 95.1609 33.3044 95.1287 33.7871C95.0965 34.2699 95.0643 34.8089 95.0321 35.4042C95 35.9996 94.9678 36.6512 94.9356 37.3592C94.8391 38.4051 94.654 39.2096 94.3805 39.7728C94.123 40.336 93.753 40.7221 93.2702 40.9313C92.8036 41.1566 92.2083 41.2692 91.4842 41.2692C90.4222 41.2692 89.6016 40.8669 89.0224 40.0624C88.4431 39.2418 88.0167 38.212 87.7432 36.973C87.6305 36.3455 87.526 35.6054 87.4294 34.7526C87.349 33.8998 87.2846 33.0068 87.2363 32.0735C87.1881 31.1403 87.1478 30.2231 87.1157 29.322C87.0835 28.4049 87.0674 27.5762 87.0674 26.8361C87.0674 25.7741 87.0835 24.7604 87.1157 23.795C87.1478 22.8296 87.1961 21.9124 87.2605 21.0435C87.3248 20.1746 87.4053 19.354 87.5018 18.5817C87.5984 17.8093 87.711 17.0933 87.8397 16.4336C88.0811 15.259 88.3868 14.2775 88.7569 13.4891C89.143 12.6845 89.6177 12.0731 90.1809 11.6547C90.744 11.2364 91.4198 11.0272 92.2083 11.0272C93.1093 11.0272 93.7851 11.2847 94.2357 11.7996C94.7023 12.3145 95.0241 13.1833 95.2011 14.4062C95.2494 14.8246 95.2896 15.251 95.3218 15.6854C95.3701 16.1198 95.4103 16.5462 95.4425 16.9646C95.4907 17.3669 95.531 17.753 95.5631 18.1231C95.6114 18.4771 95.6516 18.7989 95.6838 19.0885C95.7321 19.3621 95.7723 19.5873 95.8045 19.7643C95.901 20.3436 96.0298 20.8182 96.1907 21.1883C96.3516 21.5584 96.6331 21.8159 97.0354 21.9607C97.5503 22.1055 98.2824 22.202 99.2318 22.2503C100.181 22.2986 101.187 22.3227 102.249 22.3227C103.166 22.3227 104.011 22.3308 104.783 22.3468C105.555 22.3468 106.223 22.3308 106.786 22.2986C107.365 22.2664 107.792 22.1859 108.065 22.0572C108.371 21.9285 108.612 21.6952 108.789 21.3573C108.983 21.0194 109.111 20.4643 109.176 19.6919C109.224 19.3218 109.264 18.9115 109.296 18.461C109.329 17.9944 109.369 17.4956 109.417 16.9646C109.465 16.4175 109.522 15.8544 109.586 15.2751C109.666 14.6797 109.755 14.0764 109.851 13.4649C110.045 12.3708 110.366 11.5904 110.817 11.1238C111.283 10.6571 111.863 10.4238 112.555 10.4238C113.568 10.4238 114.349 10.7456 114.896 11.3893C115.443 12.0168 115.853 13.0305 116.127 14.4303C116.255 14.897 116.368 15.5004 116.465 16.2405C116.561 16.9646 116.642 17.7852 116.706 18.7024C116.77 19.6195 116.819 20.601 116.851 21.6469C116.899 22.6767 116.923 23.7306 116.923 24.8087C116.923 25.7097 116.899 26.6349 116.851 27.5843C116.819 28.5336 116.77 29.483 116.706 30.4323C116.642 31.3655 116.561 32.2746 116.465 33.1596C116.384 34.0285 116.288 34.8411 116.175 35.5973C116.078 36.3375 115.974 37.0052 115.861 37.6006C115.539 38.9522 115.041 39.9498 114.365 40.5934C113.689 41.2209 112.86 41.5347 111.879 41.5347Z" fill="#121325"/>
<path d="M69.3322 42.0898C67.9001 42.0898 66.5003 41.9852 65.1326 41.776C63.781 41.5669 62.5581 41.2692 61.464 40.883C60.3698 40.4808 59.5009 39.99 58.8573 39.4107C58.2298 38.8315 57.916 38.1718 57.916 37.4316C57.916 36.7397 58.0689 36.2007 58.3746 35.8145C58.6964 35.4123 59.1148 35.1387 59.6296 34.9939C60.1606 34.833 60.7318 34.7526 61.3433 34.7526C61.6168 34.7526 62.0271 34.8571 62.5742 35.0663C63.1213 35.2594 63.789 35.4605 64.5775 35.6697C65.3659 35.8789 66.2589 35.9835 67.2565 35.9835C68.3989 35.9835 69.3965 35.9433 70.2493 35.8628C71.1021 35.7663 71.8101 35.5973 72.3733 35.3559C72.9525 35.1146 73.387 34.7767 73.6766 34.3423C73.9662 33.9078 74.111 33.3446 74.111 32.6528C74.111 32.0252 73.9421 31.4701 73.6042 30.9874C73.2824 30.5047 72.8238 30.0622 72.2285 29.6599C71.6492 29.2577 70.9573 28.8795 70.1528 28.5256C69.3644 28.1716 68.5035 27.8095 67.5703 27.4395C66.3474 26.9728 65.205 26.474 64.143 25.943C63.0971 25.396 62.1719 24.7845 61.3674 24.1087C60.5629 23.4329 59.9354 22.6767 59.4848 21.84C59.0343 20.9872 58.809 20.0218 58.809 18.9437C58.809 17.6887 59.1067 16.6025 59.7021 15.6854C60.2974 14.7682 61.0939 13.9959 62.0915 13.3684C63.0891 12.7248 64.1993 12.2179 65.4222 11.8478C66.6612 11.4617 67.9323 11.1881 69.2356 11.0272C70.539 10.8502 71.7779 10.7617 72.9525 10.7617C74.2719 10.7617 75.519 10.8583 76.6936 11.0513C77.8682 11.2283 78.906 11.4938 79.8071 11.8478C80.7242 12.1857 81.4402 12.596 81.9551 13.0787C82.47 13.5615 82.7275 14.1085 82.7275 14.72C82.7275 15.3314 82.5827 15.8302 82.293 16.2164C82.0034 16.6025 81.6253 16.8922 81.1587 17.0853C80.7081 17.2623 80.2174 17.3508 79.6864 17.3508C79.3807 17.3508 78.9784 17.2381 78.4796 17.0129C77.9969 16.7715 77.3854 16.5382 76.6453 16.3129C75.9212 16.0877 75.0282 15.975 73.9662 15.975C73.2743 15.975 72.5905 16.0313 71.9147 16.144C71.255 16.2405 70.6516 16.4095 70.1045 16.6508C69.5574 16.8761 69.123 17.1898 68.8012 17.5921C68.4794 17.9944 68.3185 18.5093 68.3185 19.1368C68.3185 19.7643 68.4794 20.3194 68.8012 20.8022C69.123 21.2688 69.5655 21.6952 70.1287 22.0813C70.6918 22.4514 71.3515 22.8135 72.1078 23.1674C72.8801 23.5053 73.7088 23.8513 74.5938 24.2053C75.8005 24.688 76.959 25.2351 78.0693 25.8465C79.1956 26.4418 80.2013 27.1257 81.0862 27.898C81.9712 28.6543 82.6631 29.5071 83.1619 30.4564C83.6768 31.4057 83.9343 32.4758 83.9343 33.6665C83.9343 35.2111 83.5481 36.5225 82.7757 37.6006C82.0195 38.6786 80.9656 39.5475 79.614 40.2072C78.2785 40.8669 76.7257 41.3416 74.9558 41.6312C73.2019 41.9369 71.3274 42.0898 69.3322 42.0898Z" fill="#121325"/>
<path d="M2.5 18.8694C2.5 11.3743 8.57599 5.29834 16.0711 5.29834H36.4277C43.9229 5.29834 49.9988 11.3743 49.9988 18.8694V34.1771C49.9988 41.6722 43.9229 47.7482 36.4277 47.7482H16.0711C8.57599 47.7482 2.5 41.6722 2.5 34.1771V18.8694Z" fill="#F9F9F9"/>
<path fill-rule="evenodd" clip-rule="evenodd" d="M36.4277 7.84292H16.0711C9.98132 7.84292 5.04458 12.7797 5.04458 18.8694V34.1771C5.04458 40.2669 9.98132 45.2036 16.0711 45.2036H36.4277C42.5175 45.2036 47.4543 40.2669 47.4543 34.1771V18.8694C47.4543 12.7797 42.5175 7.84292 36.4277 7.84292ZM16.0711 5.29834C8.57599 5.29834 2.5 11.3743 2.5 18.8694V34.1771C2.5 41.6722 8.57599 47.7482 16.0711 47.7482H36.4277C43.9229 47.7482 49.9988 41.6722 49.9988 34.1771V18.8694C49.9988 11.3743 43.9229 5.29834 36.4277 5.29834H16.0711Z" fill="#121325"/>
<path fill-rule="evenodd" clip-rule="evenodd" d="M2.5 27.3105V34.1791C2.5 41.6742 8.57599 47.7502 16.0711 47.7502H36.4277C43.9229 47.7502 49.9988 41.6742 49.9988 34.1791V27.3105C49.9988 34.8057 43.9229 40.8816 36.4277 40.8816H16.0711C8.57599 40.8816 2.5 34.8057 2.5 27.3105Z" fill="#BFBFCB"/>
<path d="M40.2139 21.9649C40.2139 24.1778 38.42 25.9717 36.2071 25.9717C33.9941 25.9717 32.2002 24.1778 32.2002 21.9649C32.2002 19.7519 33.9941 17.958 36.2071 17.958C38.42 17.958 40.2139 19.7519 40.2139 21.9649Z" fill="#121325"/>
<path d="M36.3774 20.2942C36.3774 20.9396 35.8541 21.4628 35.2087 21.4628C34.5633 21.4628 34.04 20.9396 34.04 20.2942C34.04 19.6487 34.5633 19.1255 35.2087 19.1255C35.8541 19.1255 36.3774 19.6487 36.3774 20.2942Z" fill="white"/>
<path d="M43.2129 26.0376C43.2129 26.7425 42.3329 27.314 41.2473 27.314C40.1618 27.314 39.2817 26.7425 39.2817 26.0376C39.2817 25.3327 40.1618 24.7612 41.2473 24.7612C42.3329 24.7612 43.2129 25.3327 43.2129 26.0376Z" fill="#D9D9D9"/>
<path d="M20.2984 21.9649C20.2984 24.1778 18.5044 25.9717 16.2915 25.9717C14.0786 25.9717 12.2847 24.1778 12.2847 21.9649C12.2847 19.7519 14.0786 17.958 16.2915 17.958C18.5044 17.958 20.2984 19.7519 20.2984 21.9649Z" fill="#121325"/>
<path d="M16.4614 20.2961C16.4614 20.9415 15.9381 21.4648 15.2927 21.4648C14.6473 21.4648 14.124 20.9415 14.124 20.2961C14.124 19.6507 14.6473 19.1274 15.2927 19.1274C15.9381 19.1274 16.4614 19.6507 16.4614 20.2961Z" fill="white"/>
<path d="M13.2149 26.0376C13.2149 26.7425 12.3349 27.314 11.2493 27.314C10.1637 27.314 9.28369 26.7425 9.28369 26.0376C9.28369 25.3327 10.1637 24.7612 11.2493 24.7612C12.3349 24.7612 13.2149 25.3327 13.2149 26.0376Z" fill="#D9D9D9"/>
<path d="M26.2451 21.4963C26.6038 21.4963 26.9412 21.5452 27.2559 21.6288C29.6022 22.252 30.3131 25.4653 28.6272 27.2121C28.0513 27.8089 27.2773 28.2443 26.2451 28.2443C25.2129 28.2443 24.439 27.8089 23.863 27.2121C22.1772 25.4653 22.888 22.252 25.2343 21.6288C25.5491 21.5452 25.8864 21.4963 26.2451 21.4963Z" fill="#D9D9D9"/>
<path d="M25.4142 22.9254C25.9605 22.7872 26.5328 22.7872 27.0791 22.9254L29.7764 23.6081L26.2466 26.9976L22.7169 23.6081L25.4142 22.9254Z" fill="#7D7E8C"/>
<path d="M28.2954 24.1946C26.9417 24.4732 25.5455 24.4732 24.1918 24.1946L22.7139 23.8905L26.2436 21.2358L29.7733 23.8905L28.2954 24.1946Z" fill="#BFBFCB"/>
<path d="M26.3855 21.8331C26.1966 21.2802 25.8573 21.1355 25.4205 21.0234C23.7436 21.6097 22.8378 22.79 22.7837 23.1205C23.14 23.0602 24.0476 22.9757 24.827 23.1205C25.8013 23.3016 25.7828 23.5113 26.1535 23.494C26.5243 23.4768 26.5713 22.377 26.3855 21.8331Z" fill="#F9F9F9"/>
<path fill-rule="evenodd" clip-rule="evenodd" d="M23.2938 24.0624C23.2937 24.1072 23.3089 24.1483 23.3458 24.1845C24.0195 24.8456 25.1118 25.6718 26.2451 25.6718C27.3784 25.6718 28.4708 24.8456 29.1444 24.1845C29.1813 24.1483 29.1965 24.1072 29.1964 24.0624C29.1963 24.0147 29.1777 23.9556 29.1279 23.9019C28.7009 23.4409 28.0857 22.808 27.4841 22.295C27.1824 22.0377 26.8994 21.8239 26.6564 21.678C26.5354 21.6054 26.4354 21.5563 26.3569 21.5267C26.2843 21.4993 26.2495 21.4959 26.2453 21.4955C26.2452 21.4955 26.2452 21.4955 26.2451 21.4955C26.2451 21.4955 26.245 21.4955 26.245 21.4955C26.2407 21.4959 26.2059 21.4993 26.1333 21.5267C26.0548 21.5563 25.9548 21.6054 25.8339 21.678C25.5908 21.8239 25.3079 22.0377 25.0061 22.295C24.4045 22.808 23.7894 23.4409 23.3623 23.9019C23.3125 23.9556 23.294 24.0147 23.2938 24.0624ZM22.4103 25.1377C21.7887 24.5277 21.8356 23.5845 22.3826 22.9941C22.8227 22.5191 23.479 21.8419 24.1396 21.2787C24.4689 20.9979 24.8146 20.7321 25.1463 20.533C25.4543 20.348 25.8468 20.1599 26.2451 20.1599C26.6434 20.1599 27.036 20.348 27.3439 20.533C27.6756 20.7321 28.0214 20.9979 28.3507 21.2787C29.0112 21.8419 29.6676 22.5191 30.1077 22.9941C30.6546 23.5845 30.7015 24.5277 30.0799 25.1377C29.3757 25.8289 27.9471 27.0074 26.2451 27.0074C24.5432 27.0074 23.1146 25.8289 22.4103 25.1377Z" fill="#121325"/>
<path fill-rule="evenodd" clip-rule="evenodd" d="M36.4277 7.84292H16.0711C9.98132 7.84292 5.04458 12.7797 5.04458 18.8694V34.1771C5.04458 40.2669 9.98132 45.2036 16.0711 45.2036H36.4277C42.5175 45.2036 47.4543 40.2669 47.4543 34.1771V18.8694C47.4543 12.7797 42.5175 7.84292 36.4277 7.84292ZM16.0711 5.29834C8.57599 5.29834 2.5 11.3743 2.5 18.8694V34.1771C2.5 41.6722 8.57599 47.7482 16.0711 47.7482H36.4277C43.9229 47.7482 49.9988 41.6722 49.9988 34.1771V18.8694C49.9988 11.3743 43.9229 5.29834 36.4277 5.29834H16.0711Z" fill="#121325"/>
<path d="M15.8624 8.17856C16.5954 9.03965 19.1453 10.5307 20.3287 11.1686V12.2849C21.9098 12.1918 25.6222 11.7825 27.8229 10.8895C30.5736 9.7733 33.0453 7.02267 32.8858 3.99285C32.7264 0.963032 30.2547 1.80008 26.8262 2.27847C23.3977 2.75686 22.4808 7.58064 21.9625 5.62721C21.4443 3.67377 18.7335 2.79668 16.5409 3.55413C14.3482 4.31158 14.9462 7.1022 15.8624 8.17856Z" fill="#F9F9F9"/>
<path d="M14.199 4.3238C13.3638 6.93966 14.3918 8.99935 16.3546 10.5383C17.6894 11.6554 19.782 11.5193 20 10.789C20.218 10.0587 18.5138 9.62269 17.6034 8.8738C16.693 8.12491 15.8413 6.67118 16.1643 5.37898C16.4874 4.08678 18.1329 3.4665 19.6591 4.3238C21.0695 5.11603 21.505 7.4194 21.6015 8.38436C21.6767 9.13678 21.8197 10.0246 22.1357 10.0246C22.3885 10.0246 22.7378 9.14034 22.8809 8.69819C23.6942 6.10433 24.9179 4.76302 26.8596 3.4665C28.7827 2.18239 30.5745 2.41137 31.3439 2.93894C32.1133 3.4665 32.7508 5.59875 31.3439 7.46721C29.9371 9.33567 27.8708 9.92918 28.0247 10.2589C28.1785 10.5886 30.9922 10.7645 33.1464 8.45639C35.3007 6.14829 34.4873 3.02686 33.7619 2.01569C33.0365 1.00452 31.5911 -0.345004 28.2059 0.534271C25.4977 1.23769 23.4357 3.42255 22.7177 4.3238C22.0985 3.47896 20.7362 2.07276 19.1 1.79587C17.6712 1.55407 15.0341 1.70794 14.199 4.3238Z" fill="#121325"/>
</svg>
